# Blender 4.2.1 LTS
# www.blender.org
mtllib model.mtl
o Cube
v -0.250000 0.250000 -0.175000
v -0.244147 0.250000 0.175000
v 0.250000 0.250000 -0.175000
v 0.244147 0.250000 0.175000
v -0.250000 -0.250000 -0.175000
v -0.244147 -0.250000 0.175000
v 0.250000 -0.250000 -0.175000
v 0.244147 -0.250000 0.175000
v -0.250000 0.250000 0.155115
v 0.250000 0.250000 0.155115
v 0.250000 -0.250000 0.155115
v -0.250000 -0.250000 0.155115
v -0.250000 0.244374 0.170379
v 0.250000 0.244374 0.170379
v 0.250000 -0.244374 0.170379
v -0.250000 -0.244374 0.170379
v -0.374651 -0.244374 0.293758
v -0.374651 0.244374 0.293758
v -0.244147 -0.403105 0.247872
v 0.244147 -0.403105 0.247872
v 0.244147 0.325045 0.321274
v -0.244147 0.325045 0.321274
v 0.387371 -0.244374 0.309021
v 0.387371 0.244374 0.309021
v -0.244227 0.244227 -0.170959
v -0.244147 0.240131 0.176128
v 0.244227 0.244227 -0.170959
v 0.244147 0.240131 0.176128
v -0.244227 -0.244227 -0.170959
v -0.244147 -0.241016 0.178074
v 0.244227 -0.244227 -0.170959
v 0.244147 -0.241016 0.178074
v -0.242989 0.242869 0.155115
v 0.242989 0.242869 0.155115
v 0.242989 -0.242869 0.155115
v -0.242989 -0.242869 0.155115
v -0.240401 0.244374 0.172341
v 0.240389 0.244374 0.172313
v 0.240389 -0.244374 0.172313
v -0.240401 -0.244374 0.172341
v -0.366487 -0.244374 0.297800
v -0.366487 0.244374 0.297800
v -0.244147 -0.397482 0.253661
v 0.244147 -0.397482 0.253661
v 0.244147 0.315634 0.323640
v -0.244147 0.315634 0.323640
v 0.379154 -0.244374 0.313011
v 0.379154 0.244374 0.313011
vn -0.0000 1.0000 -0.0000
vn -1.0000 -0.0000 -0.0000
vn -0.0000 -1.0000 -0.0000
vn 1.0000 -0.0000 -0.0000
vn -0.0000 -0.0000 -1.0000
vn -0.7035 -0.0000 -0.7107
vn -0.0000 -0.4298 -0.9029
vn -0.0000 0.8897 -0.4565
vn 0.7104 -0.0000 -0.7038
vn -0.0000 -0.9916 -0.1292
vn 0.9889 -0.0000 -0.1486
vn -0.0000 0.9968 -0.0805
vn -0.9888 -0.0000 -0.1495
vn -0.0000 -0.0000 1.0000
vn 1.0000 -0.0000 -0.0038
vn -0.0000 1.0000 -0.0042
vn -1.0000 -0.0000 -0.0038
vn -0.0000 -1.0000 -0.0042
vn 0.7053 -0.0000 0.7089
vn -0.0000 0.4350 0.9004
vn -0.0000 -0.8902 0.4556
vn -0.7120 -0.0000 0.7022
vn -0.9984 -0.0064 -0.0559
vn 0.6979 -0.6861 0.2054
vn 0.9985 0.0177 -0.0518
vn -0.6979 0.6861 0.2054
vn -0.6904 -0.6788 0.2502
vn -0.0181 0.9958 -0.0898
vn 0.6904 0.6788 0.2502
vn 0.0183 -0.9958 -0.0897
vn -0.4437 -0.0000 0.8962
vn -0.0000 -0.7173 0.6968
vn -0.0000 0.2438 0.9698
vn 0.4368 -0.0000 0.8996
vn -0.6979 -0.6861 0.2054
vn 0.9984 -0.0064 -0.0559
vn 0.6979 0.6861 0.2054
vn -0.9985 0.0177 -0.0518
vn -0.0181 -0.9958 -0.0898
vn -0.6904 0.6788 0.2502
vn 0.0183 0.9958 -0.0897
vn 0.6904 -0.6788 0.2502
vt 0.625000 0.000000
vt 0.610797 0.250000
vt 0.610797 0.000000
vt 0.248144 1.000000
vt 0.242164 0.011253
vt 0.248144 0.000000
vt 0.625000 0.500000
vt 0.610797 0.750000
vt 0.610797 0.500000
vt 0.254124 1.000000
vt 0.248144 0.011253
vt 0.254124 0.000000
vt 0.379290 1.000000
vt 0.242164 0.000000
vt 0.379290 0.000000
vt 0.242164 1.000000
vt 0.371500 0.000000
vt 0.371500 1.000000
vt 0.600754 1.000000
vt 0.460172 -0.000000
vt 0.600754 0.000000
vt 0.294158 1.000000
vt 0.242164 0.000000
vt 0.294158 0.000000
vt 0.460172 0.999073
vt 0.315585 -0.000000
vt 0.460172 0.000000
vt 0.315585 1.000000
vt 0.158621 0.000000
vt 0.315585 0.000000
vt 0.248144 0.988748
vt 0.625000 0.250000
vt 0.625000 0.750000
vt 0.242164 0.988748
vt 0.460172 1.000000
vt 0.242164 1.000000
vt 0.315585 0.999073
vt 0.158621 1.000000
vt 0.242164 0.000000
s 0
usemtl Material.001
f 2/1/1 10/2/1 9/3/1
f 12/4/2 13/5/2 9/6/2
f 8/7/3 12/8/3 11/9/3
f 10/10/4 15/11/4 11/12/4
f 7/13/5 1/14/5 3/15/5
f 12/16/2 1/17/2 5/18/2
f 11/16/3 5/17/3 7/18/3
f 10/16/4 7/17/4 3/18/4
f 9/16/1 3/17/1 1/18/1
f 16/19/6 18/20/6 13/21/6
f 8/22/7 19/23/7 6/24/7
f 2/25/8 21/26/8 4/27/8
f 14/28/9 23/29/9 15/30/9
f 34/2/10 26/1/10 33/3/10
f 37/5/11 36/4/11 33/6/11
f 36/8/12 32/7/12 35/9/12
f 35/12/13 38/31/13 34/10/13
f 25/14/14 31/13/14 27/15/14
f 25/17/15 36/16/15 29/18/15
f 29/17/16 35/16/16 31/18/16
f 31/17/17 34/16/17 27/18/17
f 27/17/18 33/16/18 25/18/18
f 42/20/19 40/19/19 37/21/19
f 43/23/20 32/22/20 30/24/20
f 45/26/21 26/25/21 28/27/21
f 47/29/22 38/28/22 39/30/22
f 2/1/23 33/3/23 26/1/23
f 4/32/24 34/2/24 10/2/24
f 8/7/25 35/9/25 32/7/25
f 6/33/26 36/8/26 12/8/26
f 15/11/27 35/12/27 11/12/27
f 14/31/28 34/10/28 38/31/28
f 13/5/29 33/6/29 9/6/29
f 16/34/30 36/4/30 40/34/30
f 16/19/3 41/35/3 17/35/3
f 13/21/1 42/20/1 37/21/1
f 17/35/31 42/20/31 18/20/31
f 20/36/32 43/23/32 19/23/32
f 6/24/2 43/23/2 30/24/2
f 8/22/4 44/36/4 20/36/4
f 2/25/2 46/37/2 22/37/2
f 4/27/4 45/26/4 28/27/4
f 22/37/33 45/26/33 21/26/33
f 14/28/1 48/38/1 24/38/1
f 15/30/3 47/29/3 39/30/3
f 24/38/34 47/29/34 23/29/34
f 2/1/1 4/32/1 10/2/1
f 12/4/2 16/34/2 13/5/2
f 8/7/3 6/33/3 12/8/3
f 10/10/4 14/31/4 15/11/4
f 7/13/5 5/16/5 1/14/5
f 12/16/2 9/39/2 1/17/2
f 11/16/3 12/39/3 5/17/3
f 10/16/4 11/39/4 7/17/4
f 9/16/1 10/39/1 3/17/1
f 16/19/6 17/35/6 18/20/6
f 8/22/7 20/36/7 19/23/7
f 2/25/8 22/37/8 21/26/8
f 14/28/9 24/38/9 23/29/9
f 34/2/10 28/32/10 26/1/10
f 37/5/11 40/34/11 36/4/11
f 36/8/12 30/33/12 32/7/12
f 35/12/13 39/11/13 38/31/13
f 25/14/14 29/16/14 31/13/14
f 25/17/15 33/39/15 36/16/15
f 29/17/16 36/39/16 35/16/16
f 31/17/17 35/39/17 34/16/17
f 27/17/18 34/39/18 33/16/18
f 42/20/19 41/35/19 40/19/19
f 43/23/20 44/36/20 32/22/20
f 45/26/21 46/37/21 26/25/21
f 47/29/22 48/38/22 38/28/22
f 2/1/35 9/3/35 33/3/35
f 4/32/36 28/32/36 34/2/36
f 8/7/37 11/9/37 35/9/37
f 6/33/38 30/33/38 36/8/38
f 15/11/39 39/11/39 35/12/39
f 14/31/40 10/10/40 34/10/40
f 13/5/41 37/5/41 33/6/41
f 16/34/42 12/4/42 36/4/42
f 16/19/3 40/19/3 41/35/3
f 13/21/1 18/20/1 42/20/1
f 17/35/31 41/35/31 42/20/31
f 20/36/32 44/36/32 43/23/32
f 6/24/2 19/23/2 43/23/2
f 8/22/4 32/22/4 44/36/4
f 2/25/2 26/25/2 46/37/2
f 4/27/4 21/26/4 45/26/4
f 22/37/33 46/37/33 45/26/33
f 14/28/1 38/28/1 48/38/1
f 15/30/3 23/29/3 47/29/3
f 24/38/34 48/38/34 47/29/34
