# Blender 4.2.1 LTS
# www.blender.org
mtllib model.mtl
o Cube
v 1.000000 0.030000 -1.000000
v 1.000000 -0.030000 -1.000000
v 1.000000 0.030000 1.000000
v 1.000000 -0.030000 1.000000
v -1.000000 0.030000 -1.000000
v -1.000000 -0.030000 -1.000000
v -1.000000 0.030000 1.000000
v -1.000000 -0.030000 1.000000
v -0.900000 -0.030000 -1.000000
v -0.900000 0.030000 1.000000
v -0.900000 -0.030000 1.000000
v -0.900000 0.030000 -1.000000
v 0.905000 -0.030000 1.000000
v 0.905000 0.030000 -1.000000
v 0.905000 -0.030000 -1.000000
v 0.905000 0.030000 1.000000
v -1.000000 -0.030000 -0.900000
v 1.000000 0.030000 -0.900000
v -1.000000 0.030000 -0.900000
v 1.000000 -0.030000 -0.900000
v -0.900000 -0.030000 -0.900000
v -0.900000 0.030000 -0.900000
v 0.905000 0.030000 -0.900000
v 0.905000 -0.030000 -0.900000
v -1.000000 -0.030000 0.905000
v 1.000000 0.030000 0.905000
v -0.900000 -0.030000 0.905000
v -0.900000 0.030000 0.905000
v 0.905000 0.030000 0.905000
v 0.905000 -0.030000 0.905000
v -1.000000 0.030000 0.905000
v 1.000000 -0.030000 0.905000
v -0.674375 0.030000 -0.900000
v -0.448750 0.030000 -0.900000
v -0.223125 0.030000 -0.900000
v 0.002500 0.030000 -0.900000
v 0.228125 0.030000 -0.900000
v 0.453750 0.030000 -0.900000
v 0.679375 0.030000 -0.900000
v -0.900000 0.030000 -0.674375
v -0.900000 0.030000 -0.448750
v -0.900000 0.030000 -0.223125
v -0.900000 0.030000 0.002500
v -0.900000 0.030000 0.228125
v -0.900000 0.030000 0.453750
v -0.900000 0.030000 0.679375
v 0.905000 0.030000 -0.674375
v 0.905000 0.030000 -0.448750
v 0.905000 0.030000 -0.223125
v 0.905000 0.030000 0.002500
v 0.905000 0.030000 0.228125
v 0.905000 0.030000 0.453750
v 0.905000 0.030000 0.679375
v -0.674375 0.030000 0.905000
v -0.448750 0.030000 0.905000
v -0.223125 0.030000 0.905000
v 0.002500 0.030000 0.905000
v 0.228125 0.030000 0.905000
v 0.453750 0.030000 0.905000
v 0.679375 0.030000 0.905000
v 0.679375 0.030000 -0.674375
v 0.679375 0.030000 -0.448750
v 0.679375 0.030000 -0.223125
v 0.679375 0.030000 0.002500
v 0.679375 0.030000 0.228125
v 0.679375 0.030000 0.453750
v 0.679375 0.030000 0.679375
v 0.453750 0.030000 -0.674375
v 0.453750 0.030000 -0.448750
v 0.453750 0.030000 -0.223125
v 0.453750 0.030000 0.002500
v 0.453750 0.030000 0.228125
v 0.453750 0.030000 0.453750
v 0.453750 0.030000 0.679375
v 0.228125 0.030000 -0.674375
v 0.228125 0.030000 -0.448750
v 0.228125 0.030000 -0.223125
v 0.228125 0.030000 0.002500
v 0.228125 0.030000 0.228125
v 0.228125 0.030000 0.453750
v 0.228125 0.030000 0.679375
v 0.002500 0.030000 -0.674375
v 0.002500 0.030000 -0.448750
v 0.002500 0.030000 -0.223125
v 0.002500 0.030000 0.002500
v 0.002500 0.030000 0.228125
v 0.002500 0.030000 0.453750
v 0.002500 0.030000 0.679375
v -0.223125 0.030000 -0.674375
v -0.223125 0.030000 -0.448750
v -0.223125 0.030000 -0.223125
v -0.223125 0.030000 0.002500
v -0.223125 0.030000 0.228125
v -0.223125 0.030000 0.453750
v -0.223125 0.030000 0.679375
v -0.448750 0.030000 -0.674375
v -0.448750 0.030000 -0.448750
v -0.448750 0.030000 -0.223125
v -0.448750 0.030000 0.002500
v -0.448750 0.030000 0.228125
v -0.448750 0.030000 0.453750
v -0.448750 0.030000 0.679375
v -0.674375 0.030000 -0.674375
v -0.674375 0.030000 -0.448750
v -0.674375 0.030000 -0.223125
v -0.674375 0.030000 0.002500
v -0.674375 0.030000 0.228125
v -0.674375 0.030000 0.453750
v -0.674375 0.030000 0.679375
v -0.900000 0.100215 1.000000
v -1.000000 0.100215 1.000000
v 1.000000 0.100215 0.905000
v 1.000000 0.100215 1.000000
v -1.000000 0.100215 -0.900000
v -1.000000 0.100215 -1.000000
v 0.905000 0.100215 -1.000000
v 1.000000 0.100215 -1.000000
v 0.905000 0.100215 1.000000
v -0.900000 0.100215 -1.000000
v -0.900000 0.100215 0.905000
v 0.905000 0.100215 0.905000
v 1.000000 0.100215 -0.900000
v -1.000000 0.100215 0.905000
v -0.900000 0.100215 -0.900000
v 0.905000 0.100215 -0.900000
v 0.679375 0.100215 -0.900000
v -0.900000 0.100215 0.679375
v 0.905000 0.100215 0.679375
v 0.679375 0.100215 0.905000
v -0.674375 0.100215 -0.900000
v -0.448750 0.100215 -0.900000
v -0.223125 0.100215 -0.900000
v 0.002500 0.100215 -0.900000
v 0.228125 0.100215 -0.900000
v 0.453750 0.100215 -0.900000
v -0.900000 0.100215 -0.674375
v -0.900000 0.100215 -0.448750
v -0.900000 0.100215 -0.223125
v -0.900000 0.100215 0.002500
v -0.900000 0.100215 0.228125
v -0.900000 0.100215 0.453750
v 0.905000 0.100215 -0.674375
v 0.905000 0.100215 -0.448750
v 0.905000 0.100215 -0.223125
v 0.905000 0.100215 0.002500
v 0.905000 0.100215 0.228125
v 0.905000 0.100215 0.453750
v -0.674375 0.100215 0.905000
v -0.448750 0.100215 0.905000
v -0.223125 0.100215 0.905000
v 0.002500 0.100215 0.905000
v 0.228125 0.100215 0.905000
v 0.453750 0.100215 0.905000
vn -0.0000 -0.0000 -1.0000
vn -0.0000 -0.0000 1.0000
vn -1.0000 -0.0000 -0.0000
vn -0.0000 -1.0000 -0.0000
vn 1.0000 -0.0000 -0.0000
vn -0.0000 1.0000 -0.0000
vt 0.777891 0.738125
vt 0.806094 0.738125
vt 0.375000 0.987500
vt 0.625000 0.987500
vt 0.625000 1.000000
vt 0.375000 1.000000
vt 0.375000 0.237500
vt 0.625000 0.237500
vt 0.625000 0.250000
vt 0.375000 0.250000
vt 0.363125 0.738125
vt 0.375000 0.738125
vt 0.375000 0.750000
vt 0.363125 0.750000
vt 0.625000 0.738125
vt 0.625000 0.750000
vt 0.375000 0.488125
vt 0.625000 0.488125
vt 0.625000 0.500000
vt 0.375000 0.500000
vt 0.625000 0.262500
vt 0.375000 0.262500
vt 0.125000 0.738125
vt 0.137500 0.738125
vt 0.137500 0.750000
vt 0.125000 0.750000
vt 0.375000 0.761875
vt 0.625000 0.761875
vt 0.625000 0.512500
vt 0.862500 0.597109
vt 0.862500 0.568906
vt 0.137500 0.500000
vt 0.363125 0.500000
vt 0.363125 0.512500
vt 0.137500 0.512500
vt 0.834297 0.738125
vt 0.125000 0.500000
vt 0.125000 0.512500
vt 0.375000 0.512500
vt 0.375000 0.011875
vt 0.625000 0.011875
vt 0.636875 0.738125
vt 0.665078 0.738125
vt 0.375000 0.000000
vt 0.625000 0.000000
vt 0.862500 0.540703
vt 0.834297 0.709922
vt 0.862500 0.709922
vt 0.862500 0.738125
vt 0.636875 0.709922
vt 0.665078 0.709922
vt 0.693281 0.709922
vt 0.693281 0.738125
vt 0.721484 0.709922
vt 0.721484 0.738125
vt 0.749687 0.709922
vt 0.749687 0.738125
vt 0.777891 0.709922
vt 0.806094 0.709922
vt 0.636875 0.512500
vt 0.665078 0.512500
vt 0.665078 0.540703
vt 0.636875 0.540703
vt 0.665078 0.568906
vt 0.636875 0.568906
vt 0.665078 0.597109
vt 0.636875 0.597109
vt 0.665078 0.625312
vt 0.636875 0.625312
vt 0.665078 0.653516
vt 0.636875 0.653516
vt 0.665078 0.681719
vt 0.636875 0.681719
vt 0.693281 0.512500
vt 0.693281 0.540703
vt 0.693281 0.568906
vt 0.693281 0.597109
vt 0.693281 0.625312
vt 0.693281 0.653516
vt 0.693281 0.681719
vt 0.721484 0.512500
vt 0.721484 0.540703
vt 0.721484 0.568906
vt 0.721484 0.597109
vt 0.721484 0.625312
vt 0.721484 0.653516
vt 0.721484 0.681719
vt 0.749687 0.512500
vt 0.749687 0.540703
vt 0.749687 0.568906
vt 0.749687 0.597109
vt 0.749687 0.625312
vt 0.749687 0.653516
vt 0.749687 0.681719
vt 0.777891 0.512500
vt 0.777891 0.540703
vt 0.777891 0.568906
vt 0.777891 0.597109
vt 0.777891 0.625312
vt 0.777891 0.653516
vt 0.777891 0.681719
vt 0.806094 0.512500
vt 0.806094 0.540703
vt 0.806094 0.568906
vt 0.806094 0.597109
vt 0.806094 0.625312
vt 0.806094 0.653516
vt 0.806094 0.681719
vt 0.834297 0.512500
vt 0.834297 0.540703
vt 0.834297 0.568906
vt 0.834297 0.597109
vt 0.834297 0.625312
vt 0.834297 0.653516
vt 0.834297 0.681719
vt 0.862500 0.512500
vt 0.862500 0.625312
vt 0.862500 0.653516
vt 0.862500 0.681719
vt 0.875000 0.738125
vt 0.875000 0.750000
vt 0.862500 0.750000
vt 0.636875 0.750000
vt 0.636875 0.500000
vt 0.862500 0.500000
vt 0.875000 0.500000
vt 0.875000 0.512500
s 0
usemtl white
f 109/47/6 46/48/6 28/49/6 54/36/6
f 67/51/6 74/52/6 59/53/6 60/43/6
f 81/54/6 88/56/6 57/57/6 58/55/6
f 95/58/6 102/59/6 55/2/6 56/1/6
f 23/60/6 39/61/6 61/62/6 47/63/6
f 48/65/6 62/64/6 63/66/6 49/67/6
f 50/69/6 64/68/6 65/70/6 51/71/6
f 52/73/6 66/72/6 67/51/6 53/50/6
f 61/62/6 68/75/6 69/76/6 62/64/6
f 63/66/6 70/77/6 71/78/6 64/68/6
f 65/70/6 72/79/6 73/80/6 66/72/6
f 38/74/6 37/81/6 75/82/6 68/75/6
f 69/76/6 76/83/6 77/84/6 70/77/6
f 71/78/6 78/85/6 79/86/6 72/79/6
f 73/80/6 80/87/6 81/54/6 74/52/6
f 75/82/6 82/89/6 83/90/6 76/83/6
f 77/84/6 84/91/6 85/92/6 78/85/6
f 79/86/6 86/93/6 87/94/6 80/87/6
f 36/88/6 35/95/6 89/96/6 82/89/6
f 83/90/6 90/97/6 91/98/6 84/91/6
f 85/92/6 92/99/6 93/100/6 86/93/6
f 87/94/6 94/101/6 95/58/6 88/56/6
f 89/96/6 96/103/6 97/104/6 90/97/6
f 91/98/6 98/105/6 99/106/6 92/99/6
f 93/100/6 100/107/6 101/108/6 94/101/6
f 34/102/6 33/109/6 103/110/6 96/103/6
f 97/104/6 104/111/6 105/112/6 98/105/6
f 99/106/6 106/113/6 107/114/6 100/107/6
f 101/108/6 108/115/6 109/47/6 102/59/6
f 103/110/6 40/46/6 41/31/6 104/111/6
f 105/112/6 42/30/6 43/117/6 106/113/6
f 107/114/6 44/118/6 45/119/6 108/115/6
usemtl black
f 53/50/6 67/51/6 60/43/6 29/42/6
f 74/52/6 81/54/6 58/55/6 59/53/6
f 88/56/6 95/58/6 56/1/6 57/57/6
f 102/59/6 109/47/6 54/36/6 55/2/6
f 47/63/6 61/62/6 62/64/6 48/65/6
f 49/67/6 63/66/6 64/68/6 50/69/6
f 51/71/6 65/70/6 66/72/6 52/73/6
f 39/61/6 38/74/6 68/75/6 61/62/6
f 62/64/6 69/76/6 70/77/6 63/66/6
f 64/68/6 71/78/6 72/79/6 65/70/6
f 66/72/6 73/80/6 74/52/6 67/51/6
f 68/75/6 75/82/6 76/83/6 69/76/6
f 70/77/6 77/84/6 78/85/6 71/78/6
f 72/79/6 79/86/6 80/87/6 73/80/6
f 37/81/6 36/88/6 82/89/6 75/82/6
f 76/83/6 83/90/6 84/91/6 77/84/6
f 78/85/6 85/92/6 86/93/6 79/86/6
f 80/87/6 87/94/6 88/56/6 81/54/6
f 82/89/6 89/96/6 90/97/6 83/90/6
f 84/91/6 91/98/6 92/99/6 85/92/6
f 86/93/6 93/100/6 94/101/6 87/94/6
f 35/95/6 34/102/6 96/103/6 89/96/6
f 90/97/6 97/104/6 98/105/6 91/98/6
f 92/99/6 99/106/6 100/107/6 93/100/6
f 94/101/6 101/108/6 102/59/6 95/58/6
f 96/103/6 103/110/6 104/111/6 97/104/6
f 98/105/6 105/112/6 106/113/6 99/106/6
f 100/107/6 107/114/6 108/115/6 101/108/6
f 33/109/6 22/116/6 40/46/6 103/110/6
f 104/111/6 41/31/6 42/30/6 105/112/6
f 106/113/6 43/117/6 44/118/6 107/114/6
f 108/115/6 45/119/6 46/48/6 109/47/6
usemtl edge
f 56/1/1 55/2/1 149/2/1 150/1/1
f 11/3/2 10/4/2 7/5/2 8/6/2
f 17/7/3 19/8/3 5/9/3 6/10/3
f 30/11/4 32/12/4 4/13/4 13/14/4
f 32/12/5 26/15/5 3/16/5 4/13/5
f 15/17/1 14/18/1 1/19/1 2/20/1
f 6/10/1 5/9/1 12/21/1 9/22/1
f 25/23/4 27/24/4 11/25/4 8/26/4
f 13/27/2 16/28/2 10/4/2 11/3/2
f 18/29/5 1/19/5 117/19/5 122/29/5
f 42/30/5 41/31/5 137/31/5 138/30/5
f 4/13/2 3/16/2 16/28/2 13/27/2
f 9/22/1 12/21/1 14/18/1 15/17/1
f 27/24/4 30/11/4 13/14/4 11/25/4
f 9/32/4 15/33/4 24/34/4 21/35/4
f 12/21/1 5/9/1 115/9/1 119/21/1
f 55/2/1 54/36/1 148/36/1 149/2/1
f 6/37/4 9/32/4 21/35/4 17/38/4
f 2/20/5 1/19/5 18/29/5 20/39/5
f 15/33/4 2/20/4 20/39/4 24/34/4
f 25/40/3 31/41/3 19/8/3 17/7/3
f 29/42/1 60/43/1 129/43/1 121/42/1
f 8/44/3 7/45/3 31/41/3 25/40/3
f 21/35/4 24/34/4 30/11/4 27/24/4
f 41/31/5 40/46/5 136/46/5 137/31/5
f 17/38/4 21/35/4 27/24/4 25/23/4
f 20/39/5 18/29/5 26/15/5 32/12/5
f 24/34/4 20/39/4 32/12/4 30/11/4
f 54/36/1 28/49/1 120/49/1 148/36/1
f 120/49/6 123/120/6 111/121/6 110/122/6
f 121/42/6 129/43/6 153/53/6 152/55/6 151/57/6 150/1/6 149/2/6 148/36/6 120/49/6 110/122/6 118/123/6
f 112/15/6 121/42/6 118/123/6 113/16/6
f 117/19/6 116/124/6 125/60/6 122/29/6
f 116/124/6 119/125/6 124/116/6 130/109/6 131/102/6 132/95/6 133/88/6 134/81/6 135/74/6 126/61/6 125/60/6
f 119/125/6 115/126/6 114/127/6 124/116/6
f 122/29/6 125/60/6 142/63/6 143/65/6 144/67/6 145/69/6 146/71/6 147/73/6 128/50/6 121/42/6 112/15/6
f 124/116/6 114/127/6 123/120/6 120/49/6 127/48/6 141/119/6 140/118/6 139/117/6 138/30/6 137/31/6 136/46/6
f 43/117/5 42/30/5 138/30/5 139/117/5
f 19/8/3 31/41/3 123/41/3 114/8/3
f 57/57/1 56/1/1 150/1/1 151/57/1
f 44/118/5 43/117/5 139/117/5 140/118/5
f 58/55/1 57/57/1 151/57/1 152/55/1
f 26/15/5 18/29/5 122/29/5 112/15/5
f 45/119/5 44/118/5 140/118/5 141/119/5
f 59/53/1 58/55/1 152/55/1 153/53/1
f 46/48/5 45/119/5 141/119/5 127/48/5
f 7/5/2 10/4/2 110/4/2 111/5/2
f 22/116/2 33/109/2 130/109/2 124/116/2
f 60/43/1 59/53/1 153/53/1 129/43/1
f 28/49/5 46/48/5 127/48/5 120/49/5
f 23/60/3 47/63/3 142/63/3 125/60/3
f 3/16/5 26/15/5 112/15/5 113/16/5
f 33/109/2 34/102/2 131/102/2 130/109/2
f 14/18/1 12/21/1 119/21/1 116/18/1
f 53/50/3 29/42/3 121/42/3 128/50/3
f 47/63/3 48/65/3 143/65/3 142/63/3
f 34/102/2 35/95/2 132/95/2 131/102/2
f 48/65/3 49/67/3 144/67/3 143/65/3
f 5/9/3 19/8/3 114/8/3 115/9/3
f 35/95/2 36/88/2 133/88/2 132/95/2
f 16/28/2 3/16/2 113/16/2 118/28/2
f 31/41/3 7/45/3 111/45/3 123/41/3
f 49/67/3 50/69/3 145/69/3 144/67/3
f 1/19/1 14/18/1 116/18/1 117/19/1
f 36/88/2 37/81/2 134/81/2 133/88/2
f 50/69/3 51/71/3 146/71/3 145/69/3
f 39/61/2 23/60/2 125/60/2 126/61/2
f 37/81/2 38/74/2 135/74/2 134/81/2
f 51/71/3 52/73/3 147/73/3 146/71/3
f 38/74/2 39/61/2 126/61/2 135/74/2
f 52/73/3 53/50/3 128/50/3 147/73/3
f 10/4/2 16/28/2 118/28/2 110/4/2
f 40/46/5 22/116/5 124/116/5 136/46/5
